<?xml version="1.0" encoding="utf-8"?>
<!-- Generator: Adobe Illustrator 16.0.3, SVG Export Plug-In . SVG Version: 6.00 Build 0)  -->
<!DOCTYPE svg PUBLIC "-//W3C//DTD SVG 1.1//EN" "http://www.w3.org/Graphics/SVG/1.1/DTD/svg11.dtd">
<svg version="1.1" id="Layer_1" xmlns="http://www.w3.org/2000/svg" xmlns:xlink="http://www.w3.org/1999/xlink" x="0px" y="0px"
	 width="100.594px" height="63.806px" viewBox="0 0 100.594 63.806" enable-background="new 0 0 100.594 63.806"
	 xml:space="preserve">
<g>
	<path fill="#64A9BF" d="M82.154,24.688c-0.528-0.28-1.053-0.608-1.518-0.963c-1.638,0.397-2.913-0.868-4.41-0.86
		c-1.063,0.004-1.925,0.749-3.072,0.679c-1.504,0.977-3.348,1.651-4.694,2.768c-0.032-0.531,0.883-0.948,1.417-1.329
		c1.385-0.99,3.663-1.915,5.051-3.037c1.014-0.821,1.277-1.899,1.972-2.483c0.553-0.466,1.56-0.968,2.299-1.131
		c0.776-0.172,1.75-0.097,2.869,0.08c0.578,0.091,1.152,0.409,1.599-0.344c0.111-0.187,0.014-0.56,0.197-0.884
		c0.815-1.447,2.239-2.198,3.292-3.307c1.608-1.696,3.558-3.72,4.497-6.119c0.143,1.179-0.345,1.954-0.438,3.139
		c2.147-1.555,4.073-3.552,6.162-5.345c0.507-0.436,1.018-0.895,1.54-1.337c0.493-0.416,1.014-0.95,1.679-1.095
		c-0.436,0.553-0.727,1.236-1.402,1.577C99.19,4.921,99.36,4.95,99.347,5.187c-0.728,0.452-0.955,1.348-1.767,1.724
		c0.291,0.527-0.385,0.806-0.679,1.161c-0.002,0.224,0.168,0.253,0.154,0.489c-1.198,0.86-0.692,2.21-2.198,2.87
		c0.604,0.376-0.542,1.009,0.06,0.993c-0.147,0.497-0.831,0.517-1.198,0.818c-0.004,0.271,0.445,0.031,0.628,0.087
		c-0.042,0.472-0.382,0.68-0.693,0.913c0.112,0.094,0.093,0.336,0.27,0.358c-0.074,0.288-0.353,0.393-0.592,0.533
		c-0.105,0.47,0.478,0.168,0.409,0.598c-0.31,0.166-0.803,0.716-1.11,0.19c-0.251,0.207,0.433,0.474,0.54,0.715
		c0.117,0.417-0.445,0.232-0.467,0.526c-0.069,0.429,0.514,0.128,0.41,0.599c-0.263-0.088-0.564-0.073-0.242,0.139
		c-0.166,0.358-0.522,0.253-0.744,0.044c0.028,0.143-0.015,0.223-0.109,0.255c-0.236,0.026,0.105,0.479,0.277,0.481
		c-0.151,0.61-0.867,0.72-0.781,1.541c-0.248,0.015-0.498,0.029-0.746,0.044c-0.074,0.435,0.264,0.511,0.045,0.745
		c-0.278,0.077-0.62,0.284-0.869,0.051c0.73,0.942,1.839,1.459,2.162,2.861c1.266,1.611,2.839,2.708,4.708,3.833
		c0.771,0.463,1.874,0.71,2.213,1.613c-0.872,0.231-1.073-0.293-1.876-0.138c0.423,0.847,1.311,1.17,1.504,2.276
		c-0.87,0.097-1.179-0.438-1.899-0.51c0.169,0.56,0.654,0.764,0.709,1.452c-0.322,0.455-1.152,0.007-1.511-0.285
		c-0.378,0.235,0.189,0.862-0.065,1.001c-0.761,0.132-1.372-0.41-2.038-0.752c-0.197,0.137-0.103,0.536-0.204,0.759
		c-0.754,0.011-0.989-0.563-1.657-0.649c0.458,0.833-0.09,2.504-0.818,3.037c-0.113-0.139-0.184-0.323-0.16-0.613
		c-0.764,0.656-0.427,2.287-1.461,2.701c-0.156-0.353-0.167-0.87-0.438-1.094c-0.303,0.71-0.496,1.517-1.263,1.817
		c-0.04-0.661-0.077-1.323-0.116-1.985c-0.672,0.344-0.56,1.385-1.14,1.811c-0.062-2.421-0.736-5.329,0.453-7.125
		c-0.143-0.341-0.321,0.199-0.504-0.095c0.37-0.847,0.218-2.157,0.832-2.79c-0.326-0.207-0.577-0.498-0.679-0.955
		c-0.012-0.054-0.976-0.358-1.093-0.418c-0.336-0.169-0.652-0.369-0.957-0.586c-0.359-0.254-0.871-0.597-1.243-0.83
		C82.905,25.08,82.636,24.943,82.154,24.688z"/>
	<g>
		<path fill="#8A68AC" d="M54.178,21.975c0,1.339-1.229,2.009-3.688,2.009c-1.939,0-6.547-0.899-13.822-2.699
			c-3.399,1.939-5.098,4.377-5.098,7.316c0,1.419,0.49,2.398,1.469,2.938c1.419-0.12,2.489-0.18,3.208-0.18
			c2.078,0,3.118,0.25,3.118,0.75c0,0.32-0.551,0.48-1.651,0.48c-1.401,0-2.922-0.2-4.563-0.6c-2.222,0.32-4.803,1.18-7.744,2.579
			c-7.485,3.578-11.228,8.215-11.228,13.912c0,3.778,2.039,6.177,6.117,7.196c-0.74-1.219-1.109-2.628-1.109-4.228
			c0-3.938,2.011-7.565,6.033-10.884c4.022-3.317,8.425-4.977,13.208-4.977c2.201,0,3.952,0.539,5.252,1.619
			c1.301,1.079,1.951,2.529,1.951,4.348c0,3.898-2.141,7.411-6.424,10.539c-4.282,3.129-9.106,4.693-14.47,4.693
			c-1.081,0-2.091-0.06-3.032-0.18c1.922,2.578,4.776,3.868,8.563,3.868c2.343,0,4.256-0.35,5.738-1.049l0.36-0.06
			c0.12,0.04,0.18,0.12,0.18,0.24c0,0.28-0.742,0.574-2.223,0.885c-1.482,0.31-2.833,0.464-4.055,0.464
			c-4.186,0-7.38-1.509-9.583-4.527c-3.049-0.68-5.435-1.833-7.159-3.463c-1.724-1.629-2.586-3.523-2.586-5.682
			c0-2.898,1.2-5.611,3.598-8.14c2.398-2.528,5.597-4.442,9.595-5.742c2.418-0.799,5.187-1.379,8.305-1.739
			c-2.218-0.939-3.328-2.428-3.328-4.467c0-2.618,1.619-4.807,4.857-6.566c-4.637-1.119-8.465-1.679-11.483-1.679
			c-5.917,0-10.958,1.479-15.126,4.438c-4.167,2.958-6.251,6.536-6.251,10.734c0,1.879,0.55,3.488,1.649,4.827
			c1.1,1.34,2.418,2.009,3.958,2.009c1.059,0,1.589-0.17,1.589-0.51c0-0.18-0.19-0.24-0.57-0.18c-1.06,0-1.589-0.489-1.589-1.469
			c0-0.559,0.235-1.039,0.705-1.439c0.469-0.399,1.034-0.6,1.694-0.6c1.279,0,1.919,0.62,1.919,1.859
			c0,0.82-0.365,1.515-1.094,2.084c-0.73,0.569-1.615,0.854-2.653,0.854c-1.859,0-3.443-0.834-4.752-2.503
			C0.654,37.381,0,35.367,0,33.009c0-3.538,1.539-6.786,4.617-9.745c3.658-3.518,8.795-5.277,15.411-5.277
			c3.678,0,8.575,0.75,14.691,2.249c2.758-1.339,5.967-2.009,9.625-2.009c2.718,0,5.038,0.365,6.957,1.095
			C53.219,20.051,54.178,20.936,54.178,21.975z M45.094,41.314c0-1.439-0.571-2.628-1.711-3.568
			c-1.141-0.939-2.582-1.409-4.322-1.409c-4.303,0-8.505,1.784-12.608,5.352c-4.103,3.568-6.154,7.211-6.154,10.929
			c0,1.08,0.33,2.179,0.991,3.298c1.161,0.22,2.231,0.33,3.212,0.33c4.723,0,9.335-1.634,13.838-4.902
			C42.842,48.075,45.094,44.732,45.094,41.314z M53.549,21.915c0-0.78-0.825-1.469-2.474-2.069s-3.543-0.899-5.682-0.899
			c-2.938,0-5.617,0.64-8.035,1.919c5.296,1.719,9.754,2.579,13.373,2.579C52.609,23.444,53.549,22.935,53.549,21.915z
			 M58.856,5.754c-1.939,1.523-4.417,2.917-7.436,4.179c-2.319,1.002-3.648,1.503-3.988,1.503c-0.08,0-0.14-0.02-0.18-0.06
			c0-0.06,0.12-0.15,0.359-0.27c4.67-2.223,8.004-4.637,9.999-7.24L58.856,5.754z"/>
	</g>
	<g>
		<path fill="#8A68AC" d="M59.725,41.987c0,0.144-0.376,0.604-1.128,1.38c-1.038,1.087-1.945,1.631-2.721,1.631
			c-0.525,0-0.961-0.286-1.307-0.858c-1.061,1.465-1.924,2.481-2.591,3.046c-0.667,0.566-1.34,0.849-2.019,0.849
			c-0.607,0-1.12-0.212-1.537-0.635c-0.417-0.422-0.625-0.932-0.625-1.527c0-0.703,0.399-1.727,1.197-3.074l2.823-4.735
			c0.583,0.06,0.976,0.089,1.179,0.089c0.44,0,0.792-0.03,1.054-0.089l-3.734,6.04c-0.822,1.358-1.233,2.299-1.233,2.823
			c0,0.56,0.315,0.84,0.947,0.84c0.583,0,1.182-0.268,1.796-0.804s1.492-1.548,2.636-3.038c-0.107-0.357-0.161-0.673-0.161-0.947
			c0-1.083,0.333-2.198,1.001-3.341c0.667-1.144,1.31-1.715,1.93-1.715c0.297,0,0.447,0.173,0.447,0.518
			c0,0.894-0.989,2.734-2.966,5.521c0.25,0.536,0.638,0.804,1.164,0.804c0.907,0,2.01-0.807,3.312-2.42
			c0.238-0.286,0.394-0.43,0.465-0.43C59.7,41.916,59.725,41.94,59.725,41.987z"/>
		<path fill="#8A68AC" d="M68.73,42.041c0,0.036-0.107,0.19-0.322,0.464l-0.769,0.963c-2.468,3.045-4.584,4.568-6.349,4.568
			c-0.835,0-1.535-0.301-2.102-0.902c-0.566-0.602-0.849-1.355-0.849-2.261c0-2.144,1.494-4.032,4.485-5.664
			c1.572-0.858,2.853-1.287,3.842-1.287c0.429,0,0.795,0.128,1.099,0.384s0.456,0.569,0.456,0.938c0,0.858-0.56,1.587-1.679,2.189
			c-1.12,0.602-2.991,1.165-5.611,1.688c-0.811,1.227-1.215,2.251-1.215,3.073c0,1.025,0.554,1.537,1.664,1.537
			c1.883,0,4.191-1.837,6.922-5.512c0.143-0.19,0.262-0.286,0.358-0.286C68.706,41.946,68.73,41.981,68.73,42.041z M67.22,38.727
			c0-0.381-0.208-0.572-0.625-0.572c-0.632,0-1.462,0.438-2.493,1.313c-1.03,0.875-2.04,2.01-3.028,3.404
			c1.715-0.44,3.168-1.063,4.36-1.867C66.624,40.201,67.22,39.441,67.22,38.727z"/>
		<path fill="#8A68AC" d="M74.841,42.023c-0.012,0.036-0.072,0.131-0.179,0.286l-0.77,1.056c-2.243,3.114-3.954,4.671-5.134,4.671
			c-0.561,0-1.028-0.2-1.404-0.599c-0.375-0.399-0.563-0.896-0.563-1.492c0-0.69,0.411-1.739,1.233-3.145l2.788-4.735
			c0.369,0.083,0.661,0.125,0.875,0.125c0.321,0,0.774-0.042,1.358-0.125l-4.056,6.665c-0.583,0.965-0.875,1.709-0.875,2.233
			c0,0.536,0.28,0.804,0.841,0.804c1.061,0,2.928-1.891,5.6-5.673c0.06-0.119,0.119-0.179,0.179-0.179
			C74.805,41.916,74.841,41.952,74.841,42.023z M74.582,34.635c0,0.417-0.176,0.807-0.527,1.17s-0.735,0.545-1.152,0.545
			c-0.536,0-0.804-0.268-0.804-0.804c0-0.393,0.185-0.771,0.554-1.135c0.369-0.363,0.756-0.545,1.161-0.545
			C74.325,33.866,74.582,34.123,74.582,34.635z"/>
		<path fill="#8A68AC" d="M84.249,29.364c-5.003,8.326-7.918,13.222-8.746,14.688c-0.829,1.465-1.242,2.437-1.242,2.913
			c0,0.536,0.227,0.804,0.68,0.804c1.002,0,2.839-1.891,5.511-5.673c0.059-0.119,0.13-0.179,0.215-0.179
			c0.047,0.012,0.072,0.048,0.072,0.107c0,0.071-0.06,0.167-0.179,0.286l-0.77,1.056c-2.254,3.114-3.918,4.671-4.991,4.671
			c-0.513,0-0.934-0.194-1.262-0.581c-0.328-0.387-0.491-0.878-0.491-1.474c0-0.655,0.152-1.289,0.456-1.903
			c0.304-0.613,1.337-2.385,3.1-5.316c2.156-3.585,3.973-6.694,5.45-9.327c0.357,0.096,0.673,0.143,0.947,0.143
			C83.451,29.578,83.867,29.506,84.249,29.364z"/>
	</g>
	<g>
		<path fill="#64A9BF" d="M50.556,54.341c-0.051-1.328-1.073-1.924-2.299-1.924c-0.953,0-2.077,0.375-2.077,1.515
			c0,0.953,1.09,1.294,1.822,1.481l1.43,0.324c1.226,0.187,2.503,0.902,2.503,2.434c0,1.907-1.89,2.639-3.524,2.639
			c-2.043,0-3.439-0.953-3.609-3.098h1.072c0.085,1.447,1.158,2.196,2.587,2.196c1.005,0,2.4-0.442,2.4-1.668
			c0-1.021-0.954-1.361-1.924-1.6l-1.379-0.306c-1.396-0.375-2.451-0.851-2.451-2.349c0-1.788,1.753-2.468,3.303-2.468
			c1.753,0,3.149,0.919,3.217,2.826H50.556z"/>
		<path fill="#64A9BF" d="M53.484,51.771h0.987v1.668h0.034c0.494-1.191,1.719-1.923,3.132-1.923c2.673,0,3.95,2.162,3.95,4.647
			s-1.277,4.647-3.95,4.647c-1.311,0-2.587-0.664-3.047-1.924h-0.034v4.92h-1.073V51.771z M57.637,52.417
			c-2.366,0-3.081,1.753-3.081,3.745c0,1.821,0.799,3.745,3.081,3.745c2.043,0,2.877-1.924,2.877-3.745S59.68,52.417,57.637,52.417z
			"/>
		<path fill="#64A9BF" d="M63.272,48.4h1.072v1.719h-1.072V48.4z M63.272,51.771h1.072v8.784h-1.072V51.771z"/>
		<path fill="#64A9BF" d="M66.405,51.771h0.987v2.06h0.034c0.544-1.413,1.736-2.247,3.319-2.179v1.073
			c-1.94-0.102-3.268,1.328-3.268,3.149v4.681h-1.073V51.771z"/>
		<path fill="#64A9BF" d="M71.784,48.4h1.073v1.719h-1.073V48.4z M71.784,51.771h1.073v8.784h-1.073V51.771z"/>
		<path fill="#64A9BF" d="M76.619,51.771h1.787v0.902h-1.787v5.924c0,0.698,0.102,1.106,0.868,1.157
			c0.306,0,0.612-0.017,0.919-0.051v0.919c-0.324,0-0.63,0.034-0.954,0.034c-1.43,0-1.924-0.477-1.906-1.975v-6.009h-1.532v-0.902
			h1.532v-2.639h1.073V51.771z"/>
		<path fill="#64A9BF" d="M87.071,60.554h-0.987v-1.583h-0.034c-0.562,1.174-1.719,1.838-3.03,1.838
			c-2.213,0-3.081-1.294-3.081-3.336v-5.703h1.072v5.719c0.051,1.583,0.647,2.417,2.349,2.417c1.838,0,2.639-1.736,2.639-3.523
			v-4.613h1.072V60.554z"/>
		<path fill="#64A9BF" d="M89.727,56.452c0.017,1.566,0.833,3.456,2.894,3.456c1.566,0,2.417-0.919,2.758-2.247h1.072
			c-0.459,1.992-1.617,3.149-3.83,3.149c-2.792,0-3.966-2.145-3.966-4.647c0-2.315,1.175-4.647,3.966-4.647
			c2.826,0,3.949,2.468,3.864,4.937H89.727z M95.413,55.549c-0.051-1.617-1.055-3.132-2.792-3.132c-1.753,0-2.724,1.532-2.894,3.132
			H95.413z"/>
		<path fill="#64A9BF" d="M97.949,48.4h1.073v12.154h-1.073V48.4z"/>
	</g>
	<g>
		<g>
			<path fill-rule="evenodd" clip-rule="evenodd" fill="#A6C9D1" d="M29.027,9.367c-1.164-0.034-2.332,0.036-3.348,0.485
				c-1.039,0.458-1.987,1.043-2.481,2.108c-0.603,1.299,0.431,1.802,1.551,1.95c2.181,0.289,5.47-0.339,6.228-2.777
				c0.04-0.127,0.446-1.637,0.496-1.634C31.472,9.5,29.863,9.392,29.027,9.367z"/>
			<path fill-rule="evenodd" clip-rule="evenodd" fill="#A6C9D1" d="M31.583,9.362c-0.101-0.106-1.327,0.751-1.47,0.853
				c-1.022,0.729-1.706,1.792-1.875,3.042c-0.104,0.758-0.271,1.573-0.074,2.33c0.261,1.002,1.403,1.122,2.291,0.931
				c1.045-0.225,1.65-1.08,1.825-2.076C32.568,12.782,32.843,10.719,31.583,9.362z"/>
			<path fill-rule="evenodd" clip-rule="evenodd" fill="#64A9BF" d="M31.549,9.595c0.104,0.399,0.317,0.753,0.397,1.163
				c0.086,0.435,0.084,0.881,0.072,1.323c-0.013,0.47-0.024,0.95-0.367,1.316c-0.268,0.286-0.822,0.512-1.125,0.148
				c-0.332-0.397-0.192-1.119-0.09-1.563c0.127-0.555,0.3-1.09,0.595-1.581c0.04-0.067,0.521-0.792,0.541-0.778
				c-0.04-0.027-0.09-0.037-0.141-0.05c-0.749,0-1.472,0.075-2.221,0.1c-1.329,0.044-3.326,0.265-4.163,1.458
				c-0.586,0.835-0.485,1.815,0.6,2.037c1.364,0.278,2.808-0.252,3.867-1.108c0.482-0.389,0.911-0.865,1.235-1.392
				c0.168-0.273,0.434-1.02,0.847-1.044L31.549,9.595z"/>
		</g>
		<path fill-rule="evenodd" clip-rule="evenodd" fill="#A6C9D1" d="M33.25,5.497c0.183-0.937,0.198-1.893-0.022-2.868
			c-0.266-1.177-0.841-2.258-2.188-2.359c-1.611-0.12-2.128,1.586-1.996,2.887c0.113,1.097,2.394,5.542,2.837,5.712
			c0.318-0.213,0.5-0.854,0.646-1.178C32.853,6.974,33.104,6.242,33.25,5.497z"/>
		<g>
			<path fill="#8A68AC" d="M32.524,9.023c0.065-0.538,0.33-1.05,0.58-1.521c0.268-0.502,0.574-0.984,0.89-1.457
				c0.655-0.982,1.428-1.999,2.526-2.507c0.551-0.255,1.197-0.343,1.772-0.125c0.511,0.194,0.875,0.652,1.113,1.126
				c0.463,0.919,0.588,2.205-0.085,3.051c-0.7,0.88-1.969,1.183-3.01,1.406c-1.34,0.286-2.718,0.327-4.083,0.329
				c0.029,0.049,0.057,0.097,0.085,0.146c0.066-0.133,0.133-0.266,0.199-0.399c0.056-0.112-0.112-0.21-0.168-0.099
				c-0.067,0.133-0.133,0.266-0.2,0.399C32.11,9.438,32.149,9.52,32.227,9.52c1.445-0.001,2.891-0.061,4.306-0.373
				c1.047-0.231,2.292-0.58,2.974-1.479c0.606-0.8,0.553-1.875,0.25-2.786c-0.309-0.93-1.016-1.722-2.04-1.788
				c-1.539-0.099-2.732,1.246-3.553,2.365c-0.411,0.56-0.784,1.152-1.124,1.756c-0.313,0.556-0.633,1.167-0.711,1.809
				C32.314,9.147,32.509,9.146,32.524,9.023z"/>
			<path fill="#8A68AC" d="M32.404,9.997c0.241,0.872,0.374,1.777,0.371,2.683c-0.002,0.906-0.159,1.867-0.705,2.614
				c-0.541,0.738-1.702,1.204-2.595,0.938c-0.546-0.163-0.692-0.707-0.672-1.218c0.028-0.694,0.316-1.35,0.646-1.95
				c0.679-1.238,1.479-2.423,2.46-3.443c0.087-0.091-0.051-0.229-0.138-0.138c-0.979,1.018-1.756,2.19-2.452,3.414
				c-0.314,0.553-0.573,1.141-0.674,1.773c-0.073,0.453-0.079,0.999,0.225,1.376c0.574,0.714,1.724,0.454,2.435,0.124
				c0.778-0.362,1.244-1.118,1.469-1.919c0.389-1.379,0.194-2.944-0.181-4.305C32.558,9.824,32.37,9.875,32.404,9.997L32.404,9.997z
				"/>
			<g>
				<path fill="#8A68AC" d="M36.348,14.739c-1.692,0-3.296-0.748-4.085-1.906c-0.635-0.932-0.718-2.087-0.24-3.342
					c-0.01-0.008-0.018-0.019-0.019-0.037C32,9.418,32.03,9.403,32.061,9.395c0.011-0.026,0.021-0.053,0.033-0.081
					c-2.063-0.741-4.154-4.838-3.744-7.37C28.493,1.057,29.011,0,30.664,0c0.335,0,0.708,0.044,1.107,0.133
					c0.714,0.159,1.279,0.593,1.678,1.29c0.838,1.463,0.74,3.754,0.282,5.405c1.38-2.071,3.271-4.4,4.788-4.4
					c0.939,0,1.614,0.895,2.007,2.66c0.242,1.087,0.105,1.982-0.407,2.66c-0.715,0.949-2.112,1.486-4.376,1.676
					c1.231,0.186,2.608,0.623,3.115,1.634c0.504,1.006,0.556,1.884,0.151,2.541C38.561,14.323,37.591,14.739,36.348,14.739z
					 M32.121,9.507c-0.474,1.232-0.397,2.362,0.223,3.271c0.877,1.287,2.644,1.863,4.004,1.863c1.191,0,2.154-0.409,2.578-1.094
					c0.386-0.626,0.333-1.472-0.155-2.446c-0.555-1.109-2.221-1.505-3.521-1.643c-0.747,0.045-1.5,0.051-2.136,0.051
					c-0.179,0-0.354,0-0.525,0C32.429,9.508,32.272,9.507,32.121,9.507z M32.807,9.412c0.101,0,0.204,0,0.308,0
					c0.396,0,0.839-0.002,1.298-0.015c-0.215-0.009-0.435-0.014-0.657-0.014C33.39,9.383,33.069,9.395,32.807,9.412z M30.664,0.098
					c-1.583,0-2.081,1.012-2.218,1.862c-0.408,2.517,1.682,6.599,3.729,7.28l0.029,0.065c-0.01,0.023-0.02,0.046-0.029,0.069
					c0.242-0.035,0.819-0.088,1.581-0.088c0.525,0,1.031,0.025,1.505,0.076c2.513-0.15,4.035-0.682,4.781-1.672
					c0.494-0.654,0.625-1.522,0.389-2.58c-0.382-1.715-1.025-2.584-1.912-2.584c-1.541,0-3.507,2.515-4.885,4.627
					c-0.328,1.013-0.793,1.784-1.313,2.172l-0.069-0.012c-0.021-0.03-0.023-0.034,0.354-0.681c0.207-0.354,0.537-0.904,0.939-1.522
					c0.529-1.643,0.697-4.105-0.18-5.638c-0.386-0.672-0.929-1.09-1.616-1.243C31.356,0.142,30.991,0.098,30.664,0.098z
					 M33.405,7.506c-0.438,0.688-0.767,1.26-0.939,1.564C32.823,8.722,33.146,8.183,33.405,7.506z"/>
				<path fill="#8A68AC" d="M29.195,17.918L29.195,17.918c-0.602,0-1.052-0.201-1.271-0.567c-0.556-0.93-0.51-2.349,0.123-3.906
					c-0.345,0.159-0.717,0.292-1.133,0.406c-0.675,0.184-1.511,0.29-2.291,0.29c-0.889,0-2.467-0.142-3.054-1.093
					c-0.342-0.553-0.287-1.29,0.163-2.189c0.754-1.506,2.52-2.387,4.977-2.488c-0.044-0.062-0.084-0.126-0.118-0.193
					c-0.565-1.129-0.546-2.953,0.04-3.903c0.28-0.452,0.67-0.691,1.129-0.691c0.497,0,1.069,0.274,1.701,0.814
					c1.285,1.1,2.242,3.489,2.875,5.069l-0.085,0.045c-0.043-0.064-0.075-0.109-0.099-0.14c0.004,0.018,0.01,0.039,0.017,0.064
					l0.011,0.005l-0.004,0.018l0.003,0.012c0.037,0.125,0.093,0.296,0.16,0.493c0.228,0.688,0.573,1.727,0.573,2.376
					c0,2.521-0.66,4.185-2.019,5.087C30.445,17.726,29.777,17.918,29.195,17.918z M28.178,13.383
					c-0.66,1.567-0.722,2.994-0.17,3.917c0.2,0.336,0.622,0.521,1.188,0.521l0,0c0.564,0,1.21-0.187,1.646-0.475
					c1.329-0.882,1.975-2.52,1.975-5.006c0-0.634-0.342-1.664-0.569-2.346c-0.06-0.181-0.112-0.339-0.149-0.461h-0.125l0.021,0.052
					c-0.505,0.505-0.896,1.004-1.272,1.487C30.031,11.958,29.379,12.793,28.178,13.383z M26.784,8.466
					C25.35,8.515,22.823,8.9,21.82,10.902c-0.435,0.866-0.491,1.571-0.168,2.094c0.563,0.911,2.102,1.047,2.971,1.047
					c0.772,0,1.598-0.104,2.265-0.286c0.45-0.123,0.848-0.269,1.214-0.446c0.74-1.735,2.214-3.521,3.539-3.778
					C29.589,9.533,27.586,9.4,26.784,8.466z M31.837,9.605c-1.184,0.102-2.723,1.654-3.599,3.639
					c1.114-0.574,1.714-1.344,2.406-2.231C31.001,10.556,31.37,10.083,31.837,9.605z M26.913,8.461
					c0.939,0.975,3.507,0.975,4.757,0.975l0.275,0C30.554,8.791,28.675,8.422,26.913,8.461z M27.171,8.361
					c1.725,0,3.54,0.38,4.883,1.018c-0.022-0.095-0.018-0.127,0-0.15l0.047-0.023c0.009,0,0.018,0.001,0.028,0.005
					c-0.628-1.561-1.541-3.721-2.732-4.74c-0.614-0.525-1.165-0.792-1.638-0.792c-0.43,0-0.782,0.217-1.046,0.646
					c-0.572,0.926-0.589,2.705-0.036,3.809c0.041,0.081,0.091,0.159,0.15,0.232C26.943,8.363,27.057,8.361,27.171,8.361z"/>
				<path fill-rule="evenodd" clip-rule="evenodd" fill="#8A68AC" d="M31.76,8.263c0.596,0,1.079,0.429,1.079,0.957
					c0,0.528-0.483,0.957-1.079,0.957c-0.595,0-1.078-0.429-1.078-0.957C30.682,8.691,31.165,8.263,31.76,8.263L31.76,8.263z"/>
			</g>
		</g>
	</g>
</g>
</svg>
